<svg xmlns="http://www.w3.org/2000/svg" width="185.534" height="57.385" viewBox="0 0 185.534 57.385">
  <path id="nippon_gases_black" d="M85.107,48.185a4.113,4.113,0,0,1-1.052,2.866,3.475,3.475,0,0,1-2.665,1.164H77.919a3.441,3.441,0,0,1-2.777-1.3,5.12,5.12,0,0,1-1.03-3.336V42.52a5.13,5.13,0,0,1,1.052-3.336,3.463,3.463,0,0,1,2.821-1.3h3.292a3.612,3.612,0,0,1,2.642,1.03A3.68,3.68,0,0,1,84.928,41.4h3.56a7.058,7.058,0,0,0-.9-3.4,6.21,6.21,0,0,0-2.508-2.418,8.129,8.129,0,0,0-3.784-.851H77.987a8.015,8.015,0,0,0-3.941.94,6.527,6.527,0,0,0-2.62,2.665,8.219,8.219,0,0,0-.94,4.008v5.419a8.342,8.342,0,0,0,.94,4.008,6.614,6.614,0,0,0,2.6,2.665,7.9,7.9,0,0,0,3.9.94H81.39a7.758,7.758,0,0,0,3.784-.918,6.658,6.658,0,0,0,2.575-2.53,7.5,7.5,0,0,0,.918-3.717V44.244H79.4v3.09h5.71v.851Zm15.047-13.233H98.475l-7.9,20.175h3.762l1.836-4.792h8.016l1.791,4.792h3.762l-7.21-18.54a2.3,2.3,0,0,0-2.373-1.635M97.086,47.334l2.933-7.882h.336l2.911,7.882Zm30.228-1.9a8.535,8.535,0,0,0-3.986-1.612l-5.4-.94c-1.478-.246-2.217-.94-2.217-2.038v-.806a1.836,1.836,0,0,1,.851-1.59,3.623,3.623,0,0,1,2.127-.582h3.336a2.507,2.507,0,0,1,1.97.828,3.035,3.035,0,0,1,.739,1.926h3.56a6.134,6.134,0,0,0-.784-2.978,5.288,5.288,0,0,0-2.194-2.127,6.743,6.743,0,0,0-3.292-.761h-3.336a8.922,8.922,0,0,0-3.493.627,5.089,5.089,0,0,0-2.284,1.769,4.429,4.429,0,0,0-.806,2.62v1.657a3.868,3.868,0,0,0,1.3,3.023,7.558,7.558,0,0,0,3.9,1.635l5.419.918c1.523.246,2.306.94,2.306,2.015v1.008a1.875,1.875,0,0,1-.918,1.635,4,4,0,0,1-2.239.582H118.6a2.972,2.972,0,0,1-2.329-.94,3.541,3.541,0,0,1-.828-2.329h-3.56a6.476,6.476,0,0,0,1.769,4.68,6.665,6.665,0,0,0,4.9,1.747h3.381a9.067,9.067,0,0,0,3.538-.649,5.3,5.3,0,0,0,2.329-1.791,4.364,4.364,0,0,0,.828-2.642V48.364a3.576,3.576,0,0,0-1.321-2.933m8.128,9.7h12.651v-3.09H136.428V46.349H147.22v-3.09H136.428V38.041h11.666v-3.09H132.8V52.573a2.48,2.48,0,0,0,.717,1.836,2.693,2.693,0,0,0,1.926.717m31.46-9.7a8.535,8.535,0,0,0-3.986-1.612l-5.4-.94c-1.478-.246-2.217-.94-2.217-2.038v-.806a1.836,1.836,0,0,1,.851-1.59,3.623,3.623,0,0,1,2.127-.582h3.336a2.507,2.507,0,0,1,1.97.828,3.035,3.035,0,0,1,.739,1.926h3.56a6.134,6.134,0,0,0-.784-2.978,5.288,5.288,0,0,0-2.194-2.127,6.743,6.743,0,0,0-3.291-.761h-3.336a8.922,8.922,0,0,0-3.493.627,5.089,5.089,0,0,0-2.284,1.769,4.429,4.429,0,0,0-.806,2.62v1.657a3.868,3.868,0,0,0,1.3,3.023,7.558,7.558,0,0,0,3.9,1.635l5.419.918c1.523.246,2.306.94,2.306,2.015v1.008a1.875,1.875,0,0,1-.918,1.635,4,4,0,0,1-2.239.582h-3.269a2.972,2.972,0,0,1-2.329-.94,3.542,3.542,0,0,1-.828-2.329h-3.56a6.558,6.558,0,0,0,1.747,4.68,6.665,6.665,0,0,0,4.9,1.747h3.381a9.067,9.067,0,0,0,3.538-.649,5.3,5.3,0,0,0,2.329-1.791,4.364,4.364,0,0,0,.828-2.642V48.364a3.436,3.436,0,0,0-1.3-2.933M88.555,27.943V6.582H84.794V21.9L73.979,6.582H70.486V27.943h3.762V12.627L85.062,27.943ZM94.108,6.582H97.96V27.943H94.108Zm23.847,13.726a5.6,5.6,0,0,0,2.262-2.06,5.808,5.808,0,0,0,.806-3.068V12.269a5.681,5.681,0,0,0-.784-2.978A5.052,5.052,0,0,0,118.067,7.3a7.243,7.243,0,0,0-3.269-.717H103.513V27.943h3.851v-6.9h7.165a7.5,7.5,0,0,0,3.426-.739m-10.569-2.553V9.873h7.367a2.361,2.361,0,0,1,1.769.717,2.614,2.614,0,0,1,.672,1.881V15a2.794,2.794,0,0,1-.739,2.015,2.547,2.547,0,0,1-1.926.761h-7.143Zm34.08.493a5.808,5.808,0,0,0,.806-3.068V12.269a5.682,5.682,0,0,0-.784-2.978A5.053,5.053,0,0,0,139.316,7.3a7.243,7.243,0,0,0-3.269-.717H124.784V27.943h3.851v-6.9H135.8a7.4,7.4,0,0,0,3.4-.739,5.3,5.3,0,0,0,2.262-2.06m-3.045-3.269a2.794,2.794,0,0,1-.739,2.015,2.547,2.547,0,0,1-1.926.761h-7.12V9.873h7.344a2.361,2.361,0,0,1,1.769.717,2.614,2.614,0,0,1,.672,1.881Zm33.766-8.4V27.943h3.762V12.627l10.793,15.316h3.493V6.582h-3.762V21.9L175.68,6.582ZM168.067,17.2a10.837,10.837,0,1,0-10.837,10.837A10.846,10.846,0,0,0,168.067,17.2m-18.182,0a7.344,7.344,0,1,1,7.344,7.344,7.349,7.349,0,0,1-7.344-7.344M37.727,57.186A26.209,26.209,0,0,1,36.048,59.4,29.279,29.279,0,0,0,43.5,57.723h-.067a35.424,35.424,0,0,1-5.71-.537m13.659-48.9A21.446,21.446,0,0,0,61.865,26.376,28.257,28.257,0,0,0,51.386,8.283M14.8,11.217a33.1,33.1,0,0,1,2.284-4.1,29.121,29.121,0,0,0-4.7,4.075h1.948a3.307,3.307,0,0,0,.47.022M8.663,16.255c-.381.649-.717,1.254-1.008,1.836A25.324,25.324,0,0,0,12,20.576a34.059,34.059,0,0,1,1.12-4.926,24.535,24.535,0,0,0-4.456.6m2.978,8.957a31.606,31.606,0,0,1-5.777-2.53,28.714,28.714,0,0,0,8.374,29.467,26.166,26.166,0,0,1-.313-4.187,27.509,27.509,0,0,1,1.12-7.77,32.621,32.621,0,0,1-3.4-14.689v-.291M45.967,4.858A28.751,28.751,0,0,0,27.136,2.73a28.24,28.24,0,0,0-7.949,8.889A27.16,27.16,0,0,1,34.3,19.479,25.055,25.055,0,0,0,45.967,4.858m-27.317,41c-.022.448-.045.873-.045,1.321a23.412,23.412,0,0,0,1.9,9.248,28.361,28.361,0,0,0,8.665,2.732A24.783,24.783,0,0,0,32.667,55.8,31.985,31.985,0,0,1,21.18,48.633a30.048,30.048,0,0,1-2.53-2.777M15.6,26.219a27.612,27.612,0,0,0,1.635,8.621,27.746,27.746,0,0,1,6.695-8.173,32.443,32.443,0,0,1-8.33-.448M35.242,52.17a24.351,24.351,0,0,0,3.247-12.158,24.022,24.022,0,0,0-4.7-14.375,22.915,22.915,0,0,0-8.33,5.217,22.57,22.57,0,0,0-5.71,9.248A28.1,28.1,0,0,0,35.242,52.17m6.785-27.989a24.012,24.012,0,0,0-3.807.291,29.72,29.72,0,0,1,4.523,15.472,31.445,31.445,0,0,1-2.754,13.233,27.979,27.979,0,0,0,12.965-1.343A28.618,28.618,0,0,0,61.91,34.817,23.173,23.173,0,0,0,42.026,24.181M29.89,21.427a24.766,24.766,0,0,0-12.629-5.575A29.388,29.388,0,0,0,15.806,21.9a24.907,24.907,0,0,0,14.084-.47" transform="translate(-4.7 -2.018)" fill="#1a1b1c"/>
</svg>
