<svg xmlns="http://www.w3.org/2000/svg" width="23.413" height="23.389" viewBox="0 0 23.413 23.389">
  <path id="linternet" d="M29.188,17.911A11.7,11.7,0,1,0,17.943,29.6h0A11.7,11.7,0,0,0,29.188,17.911Zm-2.847,6.431a10.943,10.943,0,0,1-4.256,3.5,11.022,11.022,0,0,0,3.043-4.357,9.286,9.286,0,0,1,1.326.7c-.037.053-.074.1-.112.157Zm-13.73,3.364A10.977,10.977,0,0,1,9.1,24.938c-.2-.242-.394-.494-.576-.752a9.3,9.3,0,0,1,1.326-.7,11.016,11.016,0,0,0,3.046,4.359C12.8,27.8,12.7,27.752,12.611,27.706ZM8.7,11.385a10.952,10.952,0,0,1,4.187-3.4A11.019,11.019,0,0,0,9.847,12.34a9.277,9.277,0,0,1-1.326-.7q.09-.126.181-.252Zm17.437-.173c.109.138.212.281.314.425a9.3,9.3,0,0,1-1.326.7,11.014,11.014,0,0,0-3.046-4.359,10.944,10.944,0,0,1,4.058,3.231Zm2.287,6.322H26.164a15.055,15.055,0,0,0-.774-4.484,10.128,10.128,0,0,0,1.476-.781,10.853,10.853,0,0,1,1.561,5.265ZM17.4,28.853c-1.189-.114-2.46-2.651-3.019-6.589a24.31,24.31,0,0,1,6.207,0c-.56,3.938-1.83,6.474-3.019,6.589H17.4Zm3.283-7.338a25.089,25.089,0,0,0-6.4,0,31.564,31.564,0,0,1-.2-3.226h6.789A31.591,31.591,0,0,1,20.686,21.515Zm-6.594-3.981a31.565,31.565,0,0,1,.2-3.226,24.835,24.835,0,0,0,6.4,0,31.59,31.59,0,0,1,.2,3.226ZM19.28,7.249a8.844,8.844,0,0,1,5.148,5.375,17.136,17.136,0,0,1-3.092.821A13.855,13.855,0,0,0,19.28,7.249Zm1.311,6.31a24.306,24.306,0,0,1-6.207,0c1.337-8.738,4.871-8.735,6.207,0Zm-6.953-.114a17.149,17.149,0,0,1-3.092-.821A8.844,8.844,0,0,1,15.7,7.248a13.858,13.858,0,0,0-2.057,6.2Zm-3.352-.112a17.963,17.963,0,0,0,3.257.862,33.043,33.043,0,0,0-.205,3.339H9.566a14.3,14.3,0,0,1,.721-4.2Zm3.051,4.956a33.043,33.043,0,0,0,.205,3.339,17.958,17.958,0,0,0-3.257.862,14.31,14.31,0,0,1-.721-4.2Zm.3,4.089a13.861,13.861,0,0,0,2.057,6.2A8.844,8.844,0,0,1,10.546,23.2a17.138,17.138,0,0,1,3.092-.821Zm7.7,0a17.15,17.15,0,0,1,3.092.821,8.844,8.844,0,0,1-5.149,5.376,13.859,13.859,0,0,0,2.057-6.2Zm3.352.112a17.964,17.964,0,0,0-3.257-.862,33.059,33.059,0,0,0,.205-3.339h3.772a14.3,14.3,0,0,1-.721,4.2Zm-3.051-4.956a33.058,33.058,0,0,0-.205-3.339,17.953,17.953,0,0,0,3.257-.862,14.312,14.312,0,0,1,.721,4.2ZM8.109,12.269a10.121,10.121,0,0,0,1.476.781,15.047,15.047,0,0,0-.775,4.484H6.548a10.851,10.851,0,0,1,1.561-5.265Zm.7,6.02a15.054,15.054,0,0,0,.774,4.484,10.128,10.128,0,0,0-1.476.781,10.852,10.852,0,0,1-1.561-5.265Zm16.579,4.484a15.046,15.046,0,0,0,.775-4.484h2.263a10.851,10.851,0,0,1-1.561,5.265,10.128,10.128,0,0,0-1.476-.781Z" transform="translate(-5.776 -6.22)" fill="#1a1b1c"/>
</svg>
